# xmcd
#
# Track frame offsets: 
#        150
#        7941
#        26801
#        50654
#        66110
#        86402
#        102482
#        127555
#        145368
#        176253
#        201364
#        217176
#
# Disc length: 3148 seconds
#
# Revision: 0
# Processed by: cddbd v1.5.2PL0 Copyright (c) Steve Scherf et al.
# Submitted via: ExactAudioCopy v0.99pb4
#
DISCID=a60c4a0c
DTITLE=Abba - Live At Wembley Arena
DYEAR=2014
DGENRE=Pop
TTITLE0=Gammal Fäbodpsalm
TTITLE1=Voulez-Vous
TTITLE2=If It Wasn't For The Nights
TTITLE3=As Good As New
TTITLE4=Knowing Me, Knowing You
TTITLE5=Rock Me
TTITLE6=Chiquitita
TTITLE7=Money, Money, Money
TTITLE8=I Have A Dream
TTITLE9=Gimme! Gimme! Gimme! (A Man After Midnight)
TTITLE10=S.O.S.
TTITLE11=Fernando
EXTD=
EXTT0=
EXTT1=
EXTT2=
EXTT3=
EXTT4=
EXTT5=
EXTT6=
EXTT7=
EXTT8=
EXTT9=
EXTT10=
EXTT11=
PLAYORDER=
